<svg width="367" height="367" viewBox="0 0 367 367" fill="none" xmlns="http://www.w3.org/2000/svg">
<path d="M218.581 263.188H160.157C150.136 263.188 141.938 255.022 141.938 245.042V193.628C141.938 183.648 150.136 175.482 160.157 175.482H218.582C228.602 175.482 236.8 183.648 236.8 193.628V245.042C236.8 255.022 228.602 263.188 218.581 263.188Z" fill="white"/>
<path d="M218.581 175.482C228.602 175.482 236.8 183.647 236.8 193.627V245.041C236.8 255.022 228.602 263.187 218.581 263.187H160.157C150.137 263.187 141.939 255.022 141.939 245.041V193.627C141.939 183.647 150.137 175.482 160.157 175.482H218.581ZM218.581 172.614H160.157C157.319 172.614 154.561 173.172 151.958 174.274C149.448 175.336 147.193 176.853 145.254 178.784C143.316 180.715 141.792 182.962 140.726 185.46C139.62 188.053 139.059 190.801 139.059 193.627V245.041C139.059 247.868 139.62 250.615 140.726 253.208C141.792 255.708 143.315 257.954 145.254 259.885C147.193 261.815 149.449 263.333 151.958 264.395C154.561 265.496 157.319 266.055 160.157 266.055H218.582C221.42 266.055 224.179 265.496 226.782 264.395C229.291 263.333 231.547 261.816 233.485 259.885C235.423 257.954 236.947 255.707 238.013 253.208C239.119 250.615 239.68 247.868 239.68 245.041V193.627C239.68 190.801 239.119 188.053 238.013 185.46C236.947 182.961 235.424 180.715 233.485 178.784C231.547 176.854 229.291 175.336 226.782 174.274C224.179 173.172 221.419 172.614 218.581 172.614Z" fill="#00227B"/>
<path d="M235.494 231.396C226.397 232.458 217.33 232.72 217.33 232.72C217.33 232.72 212.713 209.787 211.433 191.805C210.49 178.481 211.377 167.878 217.33 171.336C220.069 172.927 223.224 175.924 226.513 179.726C238.85 193.989 253.025 219.601 253.802 224.915C254.304 228.333 244.886 230.293 235.494 231.396Z" fill="white"/>
<path d="M216.112 234.247L215.864 233.014C215.836 232.873 213.012 218.782 211.185 204.192C210.107 195.59 209.58 188.488 209.618 183.083C209.67 175.701 210.746 171.515 213.005 169.908C213.996 169.202 215.683 168.655 218.085 170.05C226.005 174.652 236.057 189.313 241.344 197.642C244.87 203.198 248.246 209.038 250.85 214.086C252.685 217.643 254.943 222.371 255.285 224.699C255.384 225.375 255.318 226.401 254.437 227.445C253.165 228.954 250.521 230.136 246.117 231.162C242.888 231.914 238.738 232.561 233.784 233.086C225.396 233.973 217.453 234.209 217.374 234.211L216.112 234.247ZM215.268 172.167C214.979 172.167 214.828 172.275 214.745 172.333C213.768 173.028 210.841 177.35 214.153 203.808C215.654 215.79 217.832 227.439 218.556 231.184C221.11 231.081 227.17 230.787 233.484 230.119C248.143 228.566 251.417 226.39 252.145 225.527C252.347 225.289 252.33 225.178 252.323 225.13C251.898 222.234 246.368 211.136 238.814 199.235C230.066 185.452 221.961 175.753 216.577 172.625C215.967 172.27 215.551 172.167 215.268 172.167Z" fill="#00227B"/>
<path d="M171.044 170.49L169.202 184.362L168.155 192.249L165.921 209.088C165.921 209.088 161.838 211.853 155.047 214.045C152.51 214.865 149.588 215.598 146.362 216.079C141.09 216.869 134.994 216.97 128.39 215.625C111.398 212.158 101.201 199.587 96.786 193.267C88.2531 181.067 86.94 177.769 89.312 172.633C91.1229 168.697 94.2256 167.979 94.2256 167.979C94.2256 167.979 94.0725 164.833 96.5721 163.715C104.063 160.364 113.713 169.313 113.713 169.313C113.713 169.313 114.073 159.69 119.244 161.911C122.807 163.443 123.615 173.92 123.615 173.92C123.615 173.92 128.396 180.04 135.993 180.852C139.963 181.276 145.456 180.129 150.912 178.463C150.976 178.444 151.04 178.426 151.103 178.403C154.011 177.509 156.899 176.472 159.545 175.447C160.731 174.989 161.868 174.53 162.934 174.091C167.701 172.123 171.044 170.49 171.044 170.49Z" fill="white"/>
<path opacity="0.35" d="M96.7835 193.267C101.203 199.586 111.398 212.159 128.388 215.625C139.031 217.793 148.357 216.2 155.048 214.042C161.839 211.853 165.921 209.086 165.921 209.086L166.22 195.798C166.22 195.798 161.593 191.357 157.284 193.168C152.105 195.343 153.765 202.739 146.369 204.796C125.809 210.514 109.107 200.067 103.733 195.48C96.2767 189.118 94.3317 185.11 93.2827 183.457C91.1114 180.035 89.4346 177.347 88.4893 174.939C87.5258 179.012 89.5827 182.968 96.7835 193.267Z" fill="#00227B"/>
<path d="M138.641 218.148C135.094 218.148 131.561 217.793 128.089 217.084C120.451 215.526 113.325 212.019 106.91 206.658C102.781 203.208 98.9612 198.988 95.5566 194.119C91.4016 188.175 88.7606 184.093 87.5561 180.813C86.4017 177.67 86.5161 175.12 87.9493 172.01C89.3604 168.946 91.4938 167.538 92.7831 166.934C92.9937 165.359 93.814 163.316 95.9581 162.357C102.05 159.631 109.08 163.849 112.559 166.445C112.593 166.269 112.631 166.089 112.671 165.906C113.248 163.33 114.243 161.581 115.63 160.71C116.481 160.175 117.902 159.712 119.84 160.545C121.805 161.391 123.239 163.881 124.225 168.158C124.729 170.349 124.972 172.406 125.063 173.317C126.121 174.511 130.257 178.739 136.154 179.369C146.92 180.518 170.15 169.265 170.383 169.151C170.879 168.909 171.468 168.959 171.915 169.28C172.363 169.6 172.598 170.141 172.526 170.685L167.407 209.281C167.351 209.702 167.118 210.079 166.765 210.318C166.594 210.434 162.488 213.19 155.662 215.411C151.663 216.713 147.549 217.56 143.436 217.931C141.837 218.076 140.237 218.148 138.641 218.148ZM94.5717 169.427C94.3784 169.479 92.0936 170.161 90.6694 173.252C88.7515 177.415 89.223 179.841 98.0125 192.414C106.276 204.235 116.883 211.755 128.688 214.163C139.444 216.356 148.787 214.511 154.73 212.577C159.769 210.937 163.244 208.981 164.529 208.2L169.199 172.995C166.759 174.105 162.769 175.848 158.291 177.52C148.322 181.24 140.766 182.859 135.835 182.333C127.7 181.465 122.645 175.106 122.434 174.836C122.254 174.605 122.145 174.326 122.123 174.034C122.121 174.01 121.918 171.465 121.299 168.792C120.257 164.286 119.009 163.435 118.652 163.281C117.759 162.897 117.373 163.139 117.227 163.23C115.969 164.018 115.288 167.294 115.206 169.368C115.183 169.95 114.821 170.466 114.28 170.689C113.739 170.911 113.118 170.799 112.69 170.402C112.601 170.32 103.676 162.171 97.184 165.076C95.6882 165.745 95.7154 167.765 95.7195 167.91C95.7639 168.646 95.295 169.274 94.5717 169.427Z" fill="#00227B"/>
<path d="M114.945 169.311C114.979 169.73 114.917 170.111 114.833 170.441C114.791 170.612 114.739 170.759 114.686 170.911C114.633 171.052 114.574 171.197 114.517 171.325C114.281 171.855 114.026 172.293 113.783 172.718C113.539 173.141 113.305 173.544 113.087 173.947L112.927 174.25C112.877 174.352 112.824 174.452 112.775 174.555L112.633 174.863L112.499 175.174L112.376 175.491L112.262 175.812C112.224 175.919 112.195 176.029 112.16 176.138C112.124 176.247 112.097 176.358 112.067 176.469C111.954 176.915 111.856 177.374 111.799 177.847C111.738 178.319 111.698 178.803 111.686 179.295C111.674 179.543 111.679 179.79 111.677 180.043C111.673 180.169 111.683 180.294 111.684 180.421C111.686 180.548 111.691 180.675 111.69 180.803V180.812C111.69 180.911 111.609 180.992 111.509 180.992C111.439 180.992 111.379 180.952 111.349 180.894C111.109 180.43 110.892 179.949 110.724 179.445C110.547 178.944 110.42 178.421 110.327 177.886C110.145 176.816 110.149 175.683 110.35 174.577L110.433 174.164C110.465 174.028 110.5 173.893 110.534 173.756C110.57 173.621 110.61 173.488 110.648 173.353C110.688 173.219 110.735 173.089 110.778 172.957C110.958 172.432 111.181 171.934 111.411 171.467C111.64 171.001 111.883 170.561 112.081 170.179C112.289 169.792 112.406 169.478 112.476 169.309L112.62 168.954C112.872 168.338 113.577 168.042 114.195 168.293C114.632 168.472 114.908 168.874 114.945 169.311Z" fill="#00227B"/>
<path d="M126.745 216.648C126.367 216.648 126.002 216.44 125.823 216.08C125.57 215.574 125.777 214.959 126.285 214.707C130.435 212.651 133.27 206.234 134.483 196.15C135.423 188.336 135.032 181.068 135.028 180.996C134.997 180.431 135.43 179.948 135.997 179.916C136.562 179.884 137.05 180.317 137.082 180.881C137.086 180.955 137.487 188.378 136.528 196.367C135.961 201.094 135.036 205.106 133.777 208.289C132.148 212.41 129.935 215.186 127.202 216.541C127.055 216.614 126.898 216.648 126.745 216.648Z" fill="#00227B"/>
<g opacity="0.35">
<g opacity="0.35">
<g opacity="0.35">
<g opacity="0.35">
<path opacity="0.35" d="M259.479 282.583V282.374C257.834 282.444 259.479 282.583 259.479 282.583Z" fill="#00227B"/>
</g>
</g>
</g>
</g>
<path d="M238.72 257.418H139.914C139.914 257.418 140.517 240.434 146.362 216.079C148.704 206.31 151.892 195.356 156.222 183.836C157.262 181.071 158.37 178.272 159.545 175.446C162.83 167.564 166.662 159.491 171.13 151.419H207.505C211.199 158.093 214.457 164.765 217.331 171.335C219.191 175.584 220.89 179.788 222.439 183.917C229.201 201.919 233.171 218.534 235.495 231.395C238.36 247.262 238.72 257.418 238.72 257.418Z" fill="white"/>
<path d="M225.156 196.584C227.065 198.707 227.938 201.179 228.744 203.661C229.149 204.902 229.548 206.146 229.929 207.396C230.12 208.021 230.316 208.644 230.486 209.274C230.661 209.903 230.832 210.534 231.003 211.164L231.503 213.058C231.668 213.69 231.834 214.321 231.989 214.956L232.898 218.766C233.046 219.402 233.208 220.034 233.353 220.671L233.786 222.58L234.231 224.487C234.381 225.122 234.536 225.756 234.676 226.394L235.533 230.215C235.68 230.851 235.807 231.492 235.943 232.13L236.344 234.047L236.545 235.005L236.645 235.484L236.739 235.965L237.115 237.886C237.24 238.527 237.369 239.167 237.505 239.806C237.635 240.446 237.766 241.086 237.903 241.725C238.475 244.276 238.893 246.86 239.067 249.477C239.089 249.804 239.114 250.13 239.13 250.459L239.172 251.443C239.193 252.1 239.212 252.756 239.202 253.418C239.198 254.077 239.183 254.738 239.14 255.401C239.101 256.064 239.046 256.727 238.946 257.395C238.927 257.523 238.806 257.612 238.677 257.593C238.589 257.58 238.52 257.52 238.49 257.443L238.489 257.44C238.017 256.19 237.631 254.935 237.267 253.679C237.087 253.052 236.914 252.422 236.747 251.794L236.507 250.849C236.431 250.533 236.353 250.219 236.274 249.903C235.968 248.642 235.698 247.377 235.456 246.107C235.339 245.471 235.233 244.834 235.136 244.195C235.031 243.556 234.935 242.917 234.835 242.278C234.738 241.638 234.636 240.999 234.533 240.361C234.422 239.724 234.3 239.088 234.175 238.453L233.803 236.548L233.71 236.072L233.61 235.597L233.411 234.647L233.013 232.747C232.878 232.114 232.752 231.479 232.606 230.848L231.756 227.059C231.619 226.426 231.459 225.798 231.309 225.169L230.844 223.283L230.368 221.401C230.29 221.087 230.202 220.775 230.118 220.463L229.863 219.526L228.835 215.781C228.479 214.536 228.116 213.294 227.769 212.047C227.597 211.423 227.424 210.799 227.256 210.174L227.131 209.705L226.998 209.238L226.738 208.303C226.39 207.057 226.06 205.805 225.735 204.551L225.496 203.608C225.416 203.295 225.328 202.983 225.244 202.67C225.077 202.044 224.937 201.41 224.832 200.765C224.728 200.119 224.654 199.464 224.626 198.793C224.612 198.458 224.61 198.119 224.622 197.775C224.636 197.43 224.658 197.082 224.719 196.722L224.721 196.709C224.744 196.572 224.873 196.481 225.01 196.504C225.068 196.514 225.119 196.544 225.156 196.584Z" fill="#00227B"/>
<path d="M139.683 257.41C139.53 257.073 139.426 256.738 139.328 256.401C139.23 256.063 139.157 255.73 139.092 255.394C138.96 254.722 138.889 254.054 138.85 253.388C138.832 253.054 138.82 252.721 138.82 252.389C138.821 252.057 138.834 251.727 138.85 251.397L138.906 250.406C138.923 250.076 138.944 249.746 138.971 249.416C139.074 248.099 139.174 246.779 139.329 245.468C139.399 244.811 139.477 244.155 139.554 243.499C139.592 243.171 139.643 242.845 139.688 242.517L139.827 241.536L140.117 239.577C140.219 238.925 140.338 238.276 140.449 237.625C140.676 236.324 140.89 235.022 141.149 233.728C141.401 232.433 141.631 231.134 141.888 229.841C142.15 228.548 142.405 227.254 142.657 225.96C142.721 225.636 142.779 225.311 142.849 224.989L143.056 224.022L143.47 222.088L143.884 220.155C143.919 219.993 143.951 219.832 143.988 219.671L144.102 219.19L144.329 218.227L145.236 214.376C145.31 214.055 145.392 213.736 145.473 213.416C145.552 213.096 145.633 212.776 145.709 212.456C145.862 211.814 146.013 211.172 146.159 210.529C146.308 209.886 146.453 209.242 146.607 208.601C146.755 207.957 146.941 207.325 147.127 206.691C147.317 206.06 147.519 205.431 147.73 204.805C147.942 204.18 148.168 203.558 148.396 202.937L148.748 202.01C148.807 201.856 148.873 201.703 148.937 201.55C149.002 201.398 149.065 201.244 149.132 201.092C149.398 200.483 149.667 199.877 149.953 199.276C150.236 198.674 150.532 198.076 150.842 197.485C151.152 196.893 151.474 196.305 151.831 195.73C151.899 195.619 152.045 195.585 152.156 195.654C152.231 195.701 152.272 195.783 152.268 195.867V195.87C152.119 198.574 151.611 201.148 151.109 203.72C150.98 204.362 150.848 205.002 150.704 205.64C150.558 206.277 150.402 206.91 150.235 207.54C149.888 208.797 149.539 210.054 149.176 211.307C148.994 211.934 148.817 212.562 148.642 213.191C148.553 213.504 148.47 213.82 148.385 214.135C148.302 214.45 148.216 214.765 148.146 215.084L147.248 218.893L147.023 219.846L146.911 220.322C146.874 220.481 146.842 220.64 146.808 220.799L146.398 222.713L145.988 224.626L145.783 225.584C145.715 225.902 145.658 226.224 145.594 226.543C144.543 231.656 143.836 236.83 143.149 241.994L142.882 243.929C142.799 244.575 142.716 245.221 142.626 245.866L142.096 249.736C142 250.381 141.922 251.026 141.835 251.671C141.79 251.993 141.742 252.316 141.682 252.637C141.623 252.958 141.564 253.279 141.492 253.6C141.348 254.241 141.169 254.88 140.958 255.517C140.853 255.836 140.727 256.156 140.598 256.474C140.465 256.792 140.321 257.111 140.143 257.428L140.142 257.432C140.073 257.555 139.917 257.599 139.794 257.53C139.742 257.5 139.705 257.458 139.683 257.41Z" fill="#00227B"/>
<path d="M168.372 235.99C162.737 238.263 154.016 237.787 148.07 237.07C144.505 236.641 142.001 233.363 142.527 229.824C143.006 226.594 145.86 224.245 149.134 224.398C154.695 224.658 163.037 224.779 168.32 223.612" fill="white"/>
<g opacity="0.35">
<g opacity="0.35">
<g opacity="0.35">
<g opacity="0.35">
<path opacity="0.35" d="M168.374 235.989C162.737 238.265 154.016 237.785 148.07 237.073C144.504 236.642 142.002 233.363 142.527 229.826C142.632 229.104 142.86 228.426 143.183 227.808C144.122 229.593 145.9 230.909 148.07 231.172C154.005 231.889 162.711 232.364 168.349 230.103L168.374 235.989Z" fill="#00227B"/>
</g>
</g>
</g>
</g>
<path d="M157.168 239.153C153.908 239.153 150.666 238.885 147.89 238.551C145.764 238.294 143.878 237.219 142.578 235.523C141.275 233.823 140.731 231.722 141.046 229.606C141.332 227.678 142.321 225.933 143.83 224.694C145.34 223.452 147.249 222.819 149.204 222.91C157.396 223.292 164.07 223.025 167.995 222.158C168.783 221.984 170.742 221.978 171.898 225.679C173.072 229.44 172.942 235.757 168.934 237.373C165.629 238.705 161.383 239.153 157.168 239.153ZM148.831 225.882C146.417 225.882 144.365 227.633 144.008 230.042C143.813 231.354 144.15 232.659 144.958 233.714C145.763 234.765 146.932 235.431 148.251 235.59C156.752 236.615 163.7 236.266 167.811 234.608C169.032 234.116 169.382 232.145 169.477 231.321C169.806 228.436 168.925 225.771 168.373 225.126C163.015 226.248 154.941 226.162 149.065 225.888C148.986 225.883 148.908 225.882 148.831 225.882Z" fill="#00227B"/>
<path d="M211.476 235.99C217.111 238.263 225.832 237.787 231.777 237.07C235.343 236.641 237.847 233.363 237.321 229.824C236.842 226.594 233.987 224.245 230.714 224.398C225.153 224.658 216.811 224.779 211.528 223.612" fill="white"/>
<g opacity="0.35">
<g opacity="0.35">
<g opacity="0.35">
<g opacity="0.35">
<path opacity="0.35" d="M231.776 237.073C225.83 237.785 217.11 238.265 211.472 235.989L211.497 230.048C217.134 232.309 225.84 231.834 231.776 231.117C233.936 230.859 235.704 229.553 236.648 227.777C236.98 228.401 237.214 229.089 237.324 229.825C237.845 233.363 235.342 236.642 231.776 237.073Z" fill="#00227B"/>
</g>
</g>
</g>
</g>
<path d="M222.68 239.153C218.465 239.153 214.22 238.705 210.914 237.373C206.906 235.757 206.776 229.439 207.95 225.679C209.106 221.978 211.065 221.984 211.853 222.157C215.779 223.025 222.452 223.292 230.644 222.91C232.6 222.819 234.508 223.452 236.018 224.693C237.527 225.933 238.516 227.677 238.802 229.606C239.117 231.722 238.572 233.823 237.27 235.522C235.97 237.219 234.084 238.294 231.958 238.55C229.182 238.885 225.939 239.153 222.68 239.153ZM211.476 225.126C210.924 225.771 210.043 228.436 210.372 231.321C210.466 232.145 210.816 234.116 212.038 234.609C216.149 236.266 223.097 236.615 231.598 235.59C232.916 235.431 234.085 234.765 234.891 233.714C235.699 232.659 236.036 231.355 235.841 230.042C235.473 227.556 233.299 225.771 230.785 225.888C224.907 226.162 216.834 226.247 211.476 225.126Z" fill="#00227B"/>
<path d="M213.654 219.522V239.358C213.654 243.038 210.629 246.051 206.934 246.051H170.256C166.566 246.051 163.542 243.038 163.542 239.358V219.522C163.542 215.842 166.566 212.834 170.256 212.834H206.934C209.11 212.834 211.051 213.878 212.283 215.485C213.142 216.608 213.654 218.008 213.654 219.522Z" fill="white"/>
<g opacity="0.35">
<g opacity="0.35">
<g opacity="0.35">
<g opacity="0.35">
<path opacity="0.35" d="M213.652 219.522V239.358C213.652 243.038 210.63 246.049 206.935 246.049H170.258C166.563 246.049 163.54 243.038 163.54 239.358V231.939C169.048 237.532 179.881 241.044 189.817 241.096C193.009 241.113 195.585 238.598 195.813 235.426C195.815 235.394 195.817 235.362 195.82 235.331C196.064 232.548 198.366 230.295 201.163 230.094C204.349 229.865 207.038 232.209 207.353 235.255C212.162 229.342 210.754 219.064 212.283 215.485C213.143 216.609 213.652 218.007 213.652 219.522Z" fill="#00227B"/>
</g>
</g>
</g>
</g>
<path d="M206.936 247.541H170.257C165.728 247.541 162.044 243.871 162.044 239.361V219.522C162.044 215.012 165.728 211.342 170.257 211.342H206.936C211.464 211.342 215.148 215.012 215.148 219.522V239.361C215.148 243.871 211.464 247.541 206.936 247.541ZM170.257 214.323C167.379 214.323 165.037 216.655 165.037 219.522V239.361C165.037 242.227 167.379 244.559 170.257 244.559H206.936C209.814 244.559 212.155 242.227 212.155 239.361V219.522C212.155 216.655 209.814 214.323 206.936 214.323H170.257Z" fill="#00227B"/>
<path d="M201.59 235.21C204.789 235.21 207.382 232.627 207.382 229.441C207.382 226.255 204.789 223.672 201.59 223.672C198.391 223.672 195.798 226.255 195.798 229.441C195.798 232.627 198.391 235.21 201.59 235.21Z" fill="#22A7F0"/>
<g opacity="0.7">
<g opacity="0.7">
<g opacity="0.7">
<g opacity="0.7">
<path opacity="0.7" d="M207.382 229.441C207.382 229.836 207.344 230.219 207.269 230.594C206.735 227.956 204.395 225.971 201.592 225.971C198.784 225.971 196.444 227.956 195.91 230.594C195.835 230.219 195.797 229.837 195.797 229.441C195.797 226.253 198.391 223.673 201.592 223.673C204.787 223.673 207.382 226.253 207.382 229.441Z" fill="white"/>
</g>
</g>
</g>
</g>
<g opacity="0.35">
<g opacity="0.35">
<g opacity="0.35">
<g opacity="0.35">
<path opacity="0.35" d="M207.381 229.44C207.381 232.625 204.788 235.208 201.59 235.208C198.392 235.208 195.799 232.625 195.799 229.44C195.799 228.703 195.939 228 196.197 227.353C197.031 229.505 199.132 231.028 201.591 231.028C204.049 231.028 206.15 229.505 206.985 227.353C207.242 228 207.381 228.703 207.381 229.44Z" fill="#00227B"/>
</g>
</g>
</g>
</g>
<path d="M201.59 236.328C197.777 236.328 194.676 233.238 194.676 229.441C194.676 225.643 197.777 222.554 201.59 222.554C205.403 222.554 208.505 225.643 208.505 229.441C208.505 233.238 205.403 236.328 201.59 236.328ZM201.59 224.79C199.016 224.79 196.921 226.877 196.921 229.441C196.921 232.005 199.016 234.091 201.59 234.091C204.165 234.091 206.259 232.005 206.259 229.441C206.259 226.877 204.165 224.79 201.59 224.79Z" fill="#00227B"/>
<path d="M185.177 247.168C184.557 247.168 184.055 246.667 184.055 246.05V232.463L176.72 226.963V212.833C176.72 212.215 177.223 211.715 177.842 211.715C178.462 211.715 178.965 212.215 178.965 212.833V225.847L186.299 231.347V246.05C186.299 246.667 185.797 247.168 185.177 247.168Z" fill="#00227B"/>
<path d="M189.315 256.73C195.804 256.73 202.043 254.332 206.916 250.065C213.666 244.155 225.029 237.107 237.571 241.628C242.604 243.441 246.033 246.767 248.373 250.447C254.399 236.541 267.04 235.707 272.511 243.589C272.511 243.589 263.315 287.29 260.317 288.263C256.023 289.656 245.706 288.191 245.706 288.191C245.706 288.191 209.812 283.351 189.315 283.351C168.819 283.351 132.925 288.191 132.925 288.191C132.925 288.191 122.608 289.655 118.314 288.263C115.316 287.29 106.119 243.589 106.119 243.589C111.59 235.707 124.232 236.541 130.258 250.447C132.597 246.766 136.027 243.441 141.06 241.628C153.602 237.107 164.965 244.155 171.715 250.065C176.588 254.332 182.827 256.73 189.315 256.73Z" fill="white"/>
<g opacity="0.35">
<path d="M272.513 243.587C272.513 243.587 263.315 287.29 260.318 288.263C256.025 289.657 245.705 288.192 245.705 288.192C245.705 288.192 209.813 283.351 189.315 283.351C168.821 283.351 132.925 288.192 132.925 288.192C132.925 288.192 122.608 289.657 118.316 288.263C115.319 287.29 106.121 243.587 106.121 243.587C107.023 242.29 108.116 241.228 109.343 240.423C112.292 253.237 116.475 269.967 118.316 270.564C122.609 271.954 132.925 270.489 132.925 270.489C132.925 270.489 168.821 260.806 189.315 260.806C209.813 260.806 245.705 270.489 245.705 270.489C245.705 270.489 256.025 271.954 260.318 270.564C262.159 269.967 266.342 253.237 269.291 240.423C270.518 241.229 271.611 242.291 272.513 243.587Z" fill="#00227B"/>
</g>
<path d="M123.847 290.35C121.596 290.35 119.397 290.182 117.85 289.681C116.796 289.338 115.909 288.174 114.244 283.009C113.27 279.986 112.101 275.777 110.77 270.497C108.375 260.993 106.04 250.333 105.147 246.192C104.68 244.023 105.393 241.781 107.01 240.34C110.113 237.573 114.273 236.507 118.421 237.417C121.036 237.99 123.58 239.35 125.778 241.349C127.599 243.005 129.182 245.073 130.502 247.519C133.18 244.115 136.552 241.667 140.552 240.226C145.085 238.592 149.827 238.267 154.648 239.262C158.541 240.065 162.499 241.729 166.412 244.21C167.11 244.653 167.315 245.574 166.871 246.269C166.428 246.964 165.502 247.168 164.804 246.726C156.75 241.619 148.933 240.376 141.571 243.03C137.418 244.527 134.037 247.29 131.524 251.246C131.227 251.713 130.694 251.977 130.142 251.935C129.589 251.891 129.105 251.547 128.884 251.039C126.367 245.228 122.319 241.325 117.778 240.33C114.581 239.629 111.383 240.443 109.006 242.563C108.189 243.292 107.832 244.443 108.074 245.568C108.917 249.477 111.125 259.563 113.426 268.778C114.69 273.843 115.811 277.965 116.757 281.025C118.082 285.312 118.773 286.569 119.019 286.92C122.401 287.864 130.007 287.102 132.715 286.717C132.718 286.717 132.722 286.717 132.725 286.716C133.085 286.667 168.955 281.862 189.316 281.862C209.679 281.862 245.548 286.667 245.907 286.716C245.911 286.717 245.915 286.717 245.918 286.717C248.627 287.102 256.232 287.864 259.614 286.92C259.856 286.576 260.529 285.355 261.809 281.243C262.733 278.278 263.826 274.283 265.06 269.367C267.261 260.603 269.369 251.067 270.431 246.163C270.779 244.556 270.174 242.909 268.89 241.967C266.441 240.168 263.405 239.631 260.344 240.455C255.957 241.636 252.194 245.395 249.749 251.04C249.529 251.547 249.045 251.892 248.492 251.936C247.938 251.979 247.406 251.713 247.109 251.246C244.596 247.292 241.216 244.527 237.064 243.031C229.636 240.354 221.752 241.64 213.629 246.855C212.934 247.301 212.008 247.101 211.56 246.409C211.112 245.717 211.312 244.795 212.007 244.348C215.944 241.821 219.928 240.119 223.848 239.291C228.717 238.262 233.506 238.577 238.082 240.227C242.082 241.668 245.454 244.117 248.133 247.521C250.944 242.316 254.938 238.821 259.563 237.577C263.467 236.525 267.514 237.251 270.668 239.566C272.897 241.204 273.953 244.039 273.358 246.791C272.234 251.986 270.006 262.052 267.714 271.088C266.415 276.213 265.273 280.295 264.321 283.222C262.697 288.215 261.825 289.345 260.782 289.682C256.231 291.159 246.023 289.744 245.503 289.67C244.94 289.595 209.418 284.844 189.317 284.844C169.213 284.844 133.694 289.595 133.131 289.67C132.786 289.717 128.22 290.35 123.847 290.35Z" fill="#00227B"/>
<path d="M257.652 288.263H260.318C263.448 288.263 266.285 286.435 267.56 283.588C271.55 274.688 278.826 255.131 272.011 243.197C271.813 242.848 271.6 242.513 271.376 242.192C271.376 242.192 264.833 236.265 260.133 244.65C255.742 252.483 246.527 285.976 257.652 288.263Z" fill="#AFAFB2"/>
<g opacity="0.7">
<g opacity="0.7">
<g opacity="0.7">
<g opacity="0.7">
<path opacity="0.7" d="M257.725 250.233C257.843 250.045 257.961 249.868 258.075 249.703C263.854 241.318 271.9 247.246 271.9 247.246C272.176 247.567 272.438 247.902 272.68 248.25C273.487 249.399 274.132 250.618 274.637 251.894C274.311 248.759 273.497 245.796 272.011 243.197C271.813 242.849 271.601 242.514 271.376 242.193C271.376 242.193 264.833 236.265 260.133 244.65C259.42 245.92 258.583 247.859 257.725 250.233Z" fill="white"/>
</g>
</g>
</g>
</g>
<path d="M274.601 252.788C274.534 252.788 274.465 252.782 274.396 252.771L258.043 250.052C257.371 249.94 256.917 249.307 257.029 248.636C257.14 247.967 257.777 247.514 258.449 247.626L274.802 250.345C275.474 250.456 275.928 251.09 275.816 251.76C275.716 252.363 275.193 252.788 274.601 252.788Z" fill="#00227B"/>
<path d="M274.497 261.588C274.442 261.588 274.387 261.585 274.331 261.576L255.201 259.015C254.525 258.925 254.051 258.306 254.142 257.633C254.232 256.96 254.853 256.488 255.53 256.579L274.66 259.14C275.335 259.23 275.809 259.849 275.719 260.522C275.636 261.14 275.106 261.588 274.497 261.588Z" fill="#00227B"/>
<path d="M272.81 270.207C272.76 270.207 272.709 270.204 272.658 270.198L253.239 267.831C252.562 267.748 252.081 267.135 252.163 266.462C252.246 265.788 252.861 265.308 253.538 265.391L272.958 267.758C273.634 267.841 274.116 268.454 274.033 269.127C273.957 269.751 273.424 270.207 272.81 270.207Z" fill="#00227B"/>
<path d="M269.73 279.607C269.693 279.607 269.655 279.606 269.617 279.603L252.255 278.042C251.577 277.982 251.076 277.383 251.137 276.707C251.198 276.031 251.799 275.532 252.478 275.594L269.839 277.154C270.518 277.215 271.019 277.813 270.958 278.489C270.9 279.127 270.361 279.607 269.73 279.607Z" fill="#00227B"/>
<g opacity="0.35">
<g opacity="0.35">
<g opacity="0.35">
<g opacity="0.35">
<path opacity="0.35" d="M257.651 288.263H260.317C263.447 288.263 266.284 286.435 267.559 283.588C268.59 281.281 269.845 278.264 271.018 274.845C269.418 277.49 266.167 279.167 262.597 279.167H259.419C254.897 278.387 253.196 273.97 253.128 268.181C251.6 277.953 252.019 287.105 257.651 288.263Z" fill="#00227B"/>
</g>
</g>
</g>
</g>
<path d="M260.318 289.492H257.652C257.568 289.492 257.485 289.484 257.403 289.467C255.248 289.023 253.62 287.632 252.563 285.33C250.07 279.903 251.282 270.449 252.737 263.474C254.516 254.95 257.262 247.25 259.056 244.051C260.705 241.109 262.782 239.415 265.229 239.017C268.982 238.408 272.077 241.165 272.207 241.282C272.275 241.344 272.336 241.413 272.389 241.488C272.635 241.839 272.869 242.21 273.085 242.589C276.2 248.044 276.861 255.505 275.05 264.764C273.577 272.292 270.778 279.428 268.688 284.089C267.218 287.371 263.933 289.492 260.318 289.492ZM257.786 287.034H260.318C262.959 287.034 265.36 285.485 266.433 283.088C268.47 278.544 271.198 271.595 272.626 264.296C274.322 255.63 273.754 248.735 270.939 243.805C270.786 243.536 270.622 243.274 270.452 243.023C269.989 242.647 267.889 241.068 265.612 241.446C263.952 241.722 262.471 243.002 261.211 245.249C259.551 248.211 256.864 255.781 255.154 263.974C253.204 273.326 253.08 280.547 254.808 284.308C255.509 285.835 256.484 286.728 257.786 287.034Z" fill="#00227B"/>
<path d="M120.981 288.263H118.315C115.185 288.263 112.348 286.435 111.073 283.588C107.083 274.688 99.8071 255.131 106.622 243.197C106.82 242.848 107.033 242.513 107.257 242.192C107.257 242.192 113.8 236.265 118.5 244.65C122.891 252.483 132.105 285.976 120.981 288.263Z" fill="#AFAFB2"/>
<g opacity="0.7">
<g opacity="0.7">
<g opacity="0.7">
<g opacity="0.7">
<path opacity="0.7" d="M120.906 250.233C120.789 250.045 120.671 249.868 120.557 249.703C114.777 241.318 106.732 247.246 106.732 247.246C106.456 247.567 106.194 247.902 105.952 248.25C105.145 249.399 104.5 250.618 103.995 251.894C104.321 248.759 105.135 245.796 106.621 243.197C106.819 242.849 107.031 242.514 107.256 242.193C107.256 242.193 113.798 236.265 118.499 244.65C119.211 245.92 120.049 247.859 120.906 250.233Z" fill="white"/>
</g>
</g>
</g>
</g>
<path d="M104.031 252.788C103.438 252.788 102.916 252.362 102.815 251.761C102.703 251.091 103.156 250.458 103.829 250.346L120.182 247.627C120.855 247.515 121.491 247.967 121.603 248.637C121.714 249.307 121.261 249.94 120.588 250.052L104.235 252.771C104.167 252.783 104.098 252.788 104.031 252.788Z" fill="#00227B"/>
<path d="M104.134 261.588C103.525 261.588 102.996 261.14 102.912 260.523C102.822 259.85 103.296 259.231 103.971 259.141L123.102 256.579C123.779 256.488 124.399 256.96 124.49 257.633C124.581 258.306 124.107 258.925 123.431 259.015L104.3 261.577C104.245 261.585 104.189 261.588 104.134 261.588Z" fill="#00227B"/>
<path d="M105.822 270.207C105.208 270.207 104.676 269.751 104.599 269.127C104.516 268.454 104.997 267.841 105.674 267.758L125.094 265.39C125.77 265.308 126.386 265.787 126.469 266.462C126.552 267.135 126.071 267.748 125.393 267.831L105.974 270.198C105.923 270.205 105.872 270.207 105.822 270.207Z" fill="#00227B"/>
<path d="M108.902 279.607C108.271 279.607 107.733 279.127 107.675 278.489C107.614 277.813 108.114 277.215 108.793 277.154L126.155 275.594C126.835 275.533 127.434 276.031 127.495 276.707C127.556 277.383 127.056 277.981 126.377 278.042L109.015 279.603C108.977 279.606 108.939 279.607 108.902 279.607Z" fill="#00227B"/>
<g opacity="0.35">
<g opacity="0.35">
<g opacity="0.35">
<g opacity="0.35">
<path opacity="0.35" d="M120.98 288.263H118.314C115.185 288.263 112.347 286.435 111.072 283.588C110.041 281.281 108.786 278.264 107.613 274.845C109.213 277.49 112.465 279.167 116.034 279.167H119.212C123.734 278.387 125.435 273.97 125.503 268.181C127.032 277.953 126.611 287.105 120.98 288.263Z" fill="#00227B"/>
</g>
</g>
</g>
</g>
<path d="M120.98 289.492H118.315C114.7 289.492 111.415 287.371 109.945 284.088C107.856 279.429 105.056 272.293 103.583 264.765C101.772 255.506 102.433 248.045 105.548 242.589C105.764 242.21 105.999 241.84 106.244 241.489C106.296 241.413 106.357 241.345 106.426 241.283C106.556 241.165 109.65 238.408 113.403 239.018C115.85 239.416 117.928 241.109 119.577 244.051C121.37 247.251 124.117 254.95 125.895 263.475C127.351 270.45 128.562 279.904 126.07 285.331C125.013 287.633 123.384 289.024 121.23 289.467C121.147 289.484 121.063 289.492 120.98 289.492ZM108.18 243.024C108.009 243.274 107.847 243.536 107.694 243.804C104.878 248.735 104.31 255.629 106.005 264.296C107.434 271.596 110.161 278.544 112.199 283.088C113.273 285.486 115.673 287.034 118.314 287.034H120.845C122.148 286.729 123.124 285.836 123.825 284.308C125.552 280.547 125.429 273.325 123.478 263.974C121.768 255.78 119.081 248.211 117.421 245.249C116.161 243.002 114.68 241.722 113.02 241.446C110.748 241.069 108.648 242.643 108.18 243.024Z" fill="#00227B"/>
<path d="M151.071 287.141C150.896 287.141 150.719 287.1 150.552 287.013C150.003 286.727 149.79 286.051 150.078 285.504C154.766 276.584 154.835 266.552 150.284 255.688C146.852 247.494 141.936 241.887 141.887 241.831C141.477 241.368 141.522 240.662 141.987 240.253C142.451 239.845 143.161 239.888 143.57 240.351C143.78 240.588 148.749 246.246 152.329 254.764C154.442 259.789 155.621 264.763 155.833 269.546C156.099 275.56 154.832 281.278 152.067 286.54C151.866 286.923 151.475 287.141 151.071 287.141Z" fill="#00227B"/>
<path d="M228.016 287.141C227.611 287.141 227.221 286.923 227.02 286.541C224.255 281.278 222.988 275.561 223.254 269.547C223.467 264.764 224.645 259.79 226.758 254.764C230.338 246.247 235.307 240.588 235.517 240.352C235.927 239.889 236.636 239.845 237.101 240.254C237.566 240.662 237.611 241.368 237.2 241.831C237.151 241.887 232.235 247.494 228.803 255.688C224.252 266.552 224.321 276.584 229.009 285.504C229.296 286.051 229.084 286.726 228.535 287.013C228.369 287.1 228.191 287.141 228.016 287.141Z" fill="#00227B"/>
<g opacity="0.35">
<path d="M226.513 179.726C225.218 181.202 223.857 182.603 222.438 183.919C219.071 187.042 215.38 189.7 211.433 191.806C204.764 195.369 197.367 197.367 189.576 197.403C181.965 197.437 174.72 195.596 168.154 192.249C163.854 190.054 159.846 187.217 156.221 183.837C154.417 182.152 152.707 180.337 151.101 178.403C154.009 177.509 156.898 176.472 159.543 175.447C162.828 167.565 166.66 159.492 171.128 151.419H207.503C211.197 158.094 214.456 164.765 217.33 171.336C220.069 172.927 223.224 175.924 226.513 179.726Z" fill="#00227B"/>
</g>
<path d="M244.863 143.734C244.23 143.802 243.661 143.345 243.593 142.714L240.043 109.809C239.974 109.178 240.433 108.612 241.066 108.544C247.712 107.832 253.677 112.621 254.392 119.24L255.603 130.461C256.318 137.08 251.509 143.022 244.863 143.734Z" fill="white"/>
<path d="M244.737 144.024C244.411 144.024 244.096 143.914 243.838 143.706C243.539 143.466 243.352 143.125 243.311 142.744L239.76 109.839C239.719 109.459 239.83 109.085 240.071 108.788C240.312 108.49 240.655 108.303 241.037 108.262C247.829 107.536 253.946 112.447 254.676 119.211L255.886 130.432C256.24 133.708 255.291 136.925 253.214 139.491C251.138 142.057 248.183 143.664 244.894 144.016L244.863 143.734L244.894 144.016C244.842 144.021 244.789 144.024 244.737 144.024ZM242.369 108.757C241.948 108.757 241.524 108.779 241.097 108.825C240.866 108.849 240.659 108.962 240.513 109.142C240.368 109.322 240.301 109.547 240.326 109.778L243.876 142.683C243.901 142.913 244.014 143.12 244.195 143.265C244.376 143.41 244.602 143.476 244.834 143.452C247.972 143.116 250.791 141.582 252.772 139.135C254.754 136.687 255.659 133.617 255.321 130.491L254.111 119.27C253.459 113.242 248.324 108.757 242.369 108.757Z" fill="#00227B"/>
<g opacity="0.35">
<g opacity="0.35">
<g opacity="0.35">
<g opacity="0.35">
<path opacity="0.35" d="M255.035 125.199L255.605 130.462C256.318 137.078 251.51 143.022 244.864 143.736C244.23 143.805 243.662 143.344 243.593 142.714L242.646 133.967C242.867 134.346 243.298 134.579 243.763 134.533L244.546 134.447C249.797 133.886 253.904 130.055 255.035 125.199Z" fill="#00227B"/>
</g>
</g>
</g>
</g>
<path d="M244.736 145.318C244.114 145.318 243.515 145.108 243.023 144.714C242.454 144.257 242.098 143.607 242.02 142.883L238.469 109.978C238.391 109.254 238.601 108.543 239.059 107.976C239.518 107.409 240.171 107.054 240.897 106.976C248.399 106.173 255.16 111.599 255.966 119.072L257.177 130.293C257.568 133.913 256.519 137.468 254.225 140.303C251.932 143.138 248.667 144.914 245.032 145.302C244.934 145.312 244.834 145.318 244.736 145.318ZM244.696 142.166H244.695C244.695 142.166 244.695 142.166 244.696 142.166ZM241.665 110.074L245.122 142.113C247.744 141.726 250.089 140.392 251.762 138.324C253.525 136.145 254.331 133.413 254.03 130.63L252.82 119.409C252.215 113.807 247.259 109.701 241.665 110.074Z" fill="#00227B"/>
<path d="M132.018 120.215C132.652 120.147 133.22 120.604 133.288 121.235L136.839 154.14C136.907 154.771 136.449 155.337 135.815 155.405C129.17 156.117 123.204 151.328 122.49 144.709L121.279 133.488C120.564 126.869 125.373 120.927 132.018 120.215Z" fill="white"/>
<path d="M134.512 155.759C128.271 155.759 122.887 151.057 122.206 144.739L120.996 133.518C120.266 126.754 125.197 120.66 131.988 119.933L132.018 120.215L131.988 119.933C132.775 119.849 133.486 120.419 133.571 121.204L137.121 154.11C137.206 154.895 136.633 155.602 135.845 155.686C135.398 155.735 134.952 155.759 134.512 155.759ZM132.142 120.492C132.11 120.492 132.08 120.493 132.048 120.496C125.569 121.19 120.864 127.004 121.561 133.457L122.771 144.678C123.467 151.132 129.304 155.818 135.784 155.124C136.26 155.073 136.607 154.646 136.556 154.171L133.006 121.266C132.958 120.822 132.579 120.492 132.142 120.492Z" fill="#00227B"/>
<g opacity="0.35">
<g opacity="0.35">
<g opacity="0.35">
<g opacity="0.35">
<path opacity="0.35" d="M135.857 145.011L136.841 154.14C136.91 154.771 136.448 155.337 135.815 155.405C132.326 155.777 129.022 154.636 126.569 152.507C124.353 150.584 122.831 147.852 122.491 144.71L121.981 139.982C124.315 143.929 128.83 146.368 133.702 145.848L134.907 145.718C135.347 145.671 135.695 145.388 135.857 145.011Z" fill="#00227B"/>
</g>
</g>
</g>
</g>
<path d="M134.511 157.052C127.615 157.052 121.668 151.858 120.915 144.877L119.705 133.656C118.899 126.183 124.347 119.45 131.85 118.647C133.349 118.486 134.701 119.571 134.863 121.065L138.413 153.971C138.574 155.466 137.485 156.811 135.984 156.972C135.49 157.026 134.998 157.052 134.511 157.052ZM131.761 121.837C126.215 122.657 122.248 127.718 122.852 133.32L124.062 144.541C124.667 150.143 129.623 154.248 135.217 153.875L131.761 121.837Z" fill="#00227B"/>
<path d="M188.446 188.37C219.718 188.37 245.069 163.121 245.069 131.974C245.069 100.827 219.718 75.5776 188.446 75.5776C157.175 75.5776 131.824 100.827 131.824 131.974C131.824 163.121 157.175 188.37 188.446 188.37Z" fill="white"/>
<path d="M188.392 188.655C181.449 188.655 174.667 187.415 168.201 184.96C161.325 182.351 155.096 178.485 149.685 173.471C144.274 168.457 139.954 162.547 136.845 155.905C133.626 149.028 131.854 141.664 131.577 134.018C131.3 126.371 132.534 118.899 135.247 111.809C137.867 104.961 141.749 98.7565 146.782 93.3668C151.816 87.9771 157.751 83.6741 164.421 80.5773C171.325 77.3715 178.719 75.6063 186.396 75.3302C194.073 75.054 201.575 76.284 208.693 78.9859C215.569 81.5951 221.798 85.4614 227.21 90.4749C232.621 95.4893 236.94 101.399 240.05 108.041C243.268 114.918 245.041 122.282 245.318 129.929C245.595 137.575 244.36 145.047 241.647 152.137C239.028 158.986 235.146 165.19 230.112 170.58C225.077 175.969 219.143 180.271 212.475 183.368C205.57 186.574 198.177 188.339 190.5 188.615C189.795 188.642 189.092 188.655 188.392 188.655ZM188.473 75.8596C187.789 75.8596 187.106 75.8719 186.415 75.8964C155.371 77.0126 131.026 103.076 132.145 133.996C132.688 148.975 139.054 162.847 150.072 173.056C160.579 182.793 174.119 188.087 188.396 188.088C189.089 188.088 189.781 188.075 190.477 188.05C205.516 187.51 219.444 181.169 229.694 170.195C239.944 159.222 245.29 144.929 244.748 129.951C243.653 99.717 218.607 75.8596 188.473 75.8596Z" fill="#00227B"/>
<g opacity="0.35">
<g opacity="0.35">
<g opacity="0.35">
<g opacity="0.35">
<path opacity="0.35" d="M244.208 122.158C244.661 124.694 244.938 127.292 245.034 129.941C246.157 161.067 221.739 187.21 190.488 188.335C159.237 189.454 132.989 165.133 131.859 134.007C131.827 133.112 131.815 132.216 131.826 131.332C136.634 158.63 161.035 178.904 189.628 177.877C219.981 176.785 243.884 152.095 244.208 122.158Z" fill="#00227B"/>
</g>
</g>
</g>
</g>
<path d="M188.391 189.948C181.29 189.948 174.353 188.679 167.739 186.169C160.707 183.5 154.335 179.546 148.801 174.418C143.267 169.29 138.849 163.244 135.669 156.451C132.376 149.417 130.564 141.884 130.281 134.064C129.997 126.243 131.26 118.6 134.036 111.348C136.715 104.344 140.685 97.9969 145.834 92.4851C150.983 86.9733 157.051 82.5719 163.872 79.4055C170.935 76.1259 178.498 74.3206 186.349 74.0387C194.202 73.7568 201.875 75.0147 209.156 77.7788C216.188 80.4478 222.561 84.4018 228.095 89.5301C233.628 94.6584 238.047 100.704 241.227 107.497C244.519 114.531 246.332 122.064 246.615 129.884C246.898 137.705 245.635 145.348 242.86 152.6C240.18 159.604 236.21 165.951 231.061 171.463C225.913 176.975 219.843 181.375 213.022 184.543C205.96 187.822 198.397 189.627 190.545 189.909C189.826 189.935 189.107 189.948 188.391 189.948ZM188.474 77.1535C187.805 77.1535 187.137 77.1658 186.464 77.1896C156.134 78.2795 132.35 103.742 133.444 133.951C133.974 148.584 140.194 162.136 150.957 172.11C161.223 181.623 174.45 186.795 188.399 186.795C189.075 186.795 189.753 186.783 190.433 186.758C205.125 186.231 218.731 180.035 228.745 169.315C238.76 158.595 243.983 144.632 243.452 129.998C242.382 100.46 217.912 77.1535 188.474 77.1535Z" fill="#00227B"/>
<path d="M244.905 131.395C245.472 142.416 242.406 152.832 236.698 161.611C232.419 168.193 214.058 180.267 190.69 181.669C169.022 182.968 148.707 172.463 143.776 166.351C137.197 158.198 133.079 148.149 132.512 137.128C131.012 107.962 155.549 94.5871 186.588 93.0038C217.625 91.4206 243.406 102.229 244.905 131.395Z" fill="#3949AB"/>
<path d="M186.928 182.864C176.154 182.864 166.784 180.19 160.564 177.8C152.688 174.774 145.764 170.547 142.926 167.03C135.962 158.399 131.984 148.078 131.424 137.183C131.052 129.953 132.249 123.393 134.98 117.685C137.551 112.312 141.495 107.658 146.703 103.849C156.217 96.8898 169.989 92.7654 186.53 91.9221C203.072 91.0789 217.195 93.7799 227.373 99.7342C232.944 102.993 237.345 107.223 240.453 112.306C243.756 117.706 245.619 124.11 245.99 131.34C246.551 142.235 243.652 152.906 237.61 162.2C235.099 166.062 228.864 170.795 221.338 174.552C214.727 177.852 204.054 181.953 190.753 182.75C189.462 182.827 188.185 182.864 186.928 182.864ZM192.371 93.9372C190.498 93.9372 188.589 93.9864 186.642 94.0856C170.527 94.9075 157.162 98.8877 147.99 105.595C137.751 113.084 132.908 123.675 133.597 137.072C134.133 147.509 137.946 157.399 144.622 165.673C146.608 168.134 152.18 172.258 161.347 175.779C168.091 178.369 178.644 181.306 190.623 180.588C203.556 179.812 213.936 175.823 220.365 172.614C228.98 168.314 234.056 163.682 235.786 161.023C241.578 152.113 244.356 141.887 243.82 131.45C243.131 118.054 237.227 108.011 226.273 101.603C217.646 96.5563 206.008 93.9372 192.371 93.9372Z" fill="#00227B"/>
<g opacity="0.5">
<g opacity="0.5">
<g opacity="0.5">
<g opacity="0.5">
<path d="M233.632 129.287C234.339 123.82 231.688 118.975 227.711 118.464C223.734 117.954 219.936 121.973 219.23 127.44C218.523 132.906 221.174 137.752 225.151 138.262C229.129 138.772 232.926 134.753 233.632 129.287Z" fill="white"/>
</g>
</g>
</g>
</g>
<g opacity="0.5">
<g opacity="0.5">
<g opacity="0.5">
<g opacity="0.5">
<path d="M222.378 149.607C223.047 147.166 221.886 144.724 219.783 144.152C217.681 143.579 215.433 145.094 214.764 147.534C214.094 149.975 215.256 152.417 217.358 152.989C219.461 153.561 221.708 152.047 222.378 149.607Z" fill="white"/>
</g>
</g>
</g>
</g>
<g opacity="0.35">
<path d="M232.576 104.743C239.782 110.922 244.301 119.679 244.905 131.393C245.472 142.417 242.403 152.832 236.7 161.611C232.419 168.193 214.056 180.267 190.688 181.671C182.437 182.169 174.385 180.951 167.299 178.913C195.987 176.577 218.348 161.767 223.655 153.603C230.9 142.461 234.791 129.239 234.07 115.254C233.88 111.516 233.368 108.016 232.576 104.743Z" fill="#00227B"/>
</g>
<path d="M135.465 113.558C135.145 113.558 134.824 113.459 134.55 113.253C133.903 112.768 133.754 111.869 134.194 111.206C136.544 107.361 139.545 103.847 143.112 100.763C146.586 97.7601 150.626 95.1386 155.119 92.971C159.518 90.8494 164.381 89.1498 169.571 87.919C174.714 86.6996 180.204 85.9342 185.891 85.6441C191.484 85.3589 196.964 85.5515 202.18 86.2153C207.443 86.8856 212.447 88.0386 217.052 89.6407C221.764 91.2805 226.075 93.398 229.867 95.9343C233.764 98.5418 237.135 101.608 239.888 105.049C240.368 105.579 240.418 106.392 239.968 106.982C239.459 107.649 238.504 107.778 237.834 107.272L237.675 107.154L237.555 107.001C227.361 94.2044 208.587 87.524 186.046 88.6737C163.381 89.83 145.422 98.6312 136.773 112.82L136.733 112.885L136.681 112.953C136.384 113.349 135.927 113.558 135.465 113.558Z" fill="#00227B"/>
<g opacity="0.5">
<g opacity="0.5">
<g opacity="0.5">
<g opacity="0.5">
<path d="M146.024 153.834C146.024 153.834 135.476 125.525 150.455 113.265C165.434 101.004 187.835 99.9088 187.385 101.366C187.385 101.366 162.896 108.61 154.197 128.63C147.489 144.068 146.024 153.834 146.024 153.834Z" fill="white"/>
</g>
</g>
</g>
</g>
<path d="M239.763 291.508H139.34C136.088 291.508 133.452 288.882 133.452 285.644C133.452 283.778 134.971 282.265 136.844 282.265H242.258C244.131 282.265 245.65 283.778 245.65 285.644C245.65 288.883 243.014 291.508 239.763 291.508Z" fill="#E6E9FA"/>
<g opacity="0.3">
<g opacity="0.3">
<g opacity="0.3">
<g opacity="0.3">
<path opacity="0.3" d="M245.649 285.644C245.649 286.285 245.544 286.901 245.353 287.478C244.826 286.297 243.64 285.477 242.259 285.477H136.845C135.91 285.477 135.06 285.853 134.447 286.469C134.155 286.76 133.915 287.099 133.747 287.479C133.556 286.902 133.452 286.287 133.452 285.645C133.452 284.714 133.83 283.868 134.448 283.257C135.061 282.642 135.91 282.265 136.846 282.265H242.259C244.133 282.264 245.649 283.777 245.649 285.644Z" fill="white"/>
</g>
</g>
</g>
</g>
<g opacity="0.35">
<g opacity="0.35">
<g opacity="0.35">
<g opacity="0.35">
<path opacity="0.35" d="M245.649 285.645C245.649 287.262 244.99 288.731 243.923 289.789C242.86 290.851 241.386 291.507 239.763 291.507H139.341C136.09 291.507 133.451 288.883 133.451 285.645C133.451 285.022 133.62 284.437 133.918 283.934C134.809 286.032 136.904 287.508 139.34 287.508H239.762C241.386 287.508 242.86 286.852 243.923 285.79C244.454 285.26 244.884 284.631 245.18 283.934C245.481 284.437 245.649 285.022 245.649 285.645Z" fill="#00227B"/>
</g>
</g>
</g>
</g>
<path d="M239.763 292.999H139.34C135.268 292.999 131.956 289.7 131.956 285.645C131.956 282.96 134.149 280.775 136.845 280.775H242.259C244.954 280.775 247.148 282.96 247.148 285.645C247.148 289.699 243.835 292.999 239.763 292.999ZM136.844 283.757C135.799 283.757 134.948 284.603 134.948 285.645C134.948 288.056 136.918 290.018 139.339 290.018H239.763C242.185 290.018 244.154 288.056 244.154 285.645C244.154 284.604 243.304 283.757 242.259 283.757H136.844Z" fill="#00227B"/>
<path d="M251.512 216.244L241.69 282.263H137.414L137.059 279.875L127.587 216.244C127.277 214.154 128.905 212.279 131.022 212.279H248.076C250.199 212.279 251.823 214.154 251.512 216.244Z" fill="#FF66AC"/>
<path d="M251.512 216.244L241.69 282.263H137.414L137.059 279.875L127.587 216.244C127.277 214.154 128.905 212.279 131.022 212.279H248.076C250.199 212.279 251.823 214.154 251.512 216.244Z" fill="#E6E9FA"/>
<g opacity="0.5">
<g opacity="0.5">
<g opacity="0.5">
<g opacity="0.5">
<path opacity="0.5" d="M131.29 220.342C130.98 218.252 132.607 216.377 134.725 216.377H251.493L251.513 216.245C251.823 214.154 250.2 212.279 248.078 212.279H131.024C128.906 212.279 127.278 214.154 127.588 216.245L137.059 279.876L137.415 282.264H140.507L131.29 220.342Z" fill="white"/>
</g>
</g>
</g>
</g>
<g opacity="0.35">
<g opacity="0.35">
<g opacity="0.35">
<g opacity="0.35">
<path opacity="0.35" d="M244.786 212.279H236.567C239.684 223.651 237.964 249.332 217.857 262.753C192.617 279.602 147.128 279.494 137.47 279.875L137.826 282.263H238.399L248.221 216.244C248.532 214.154 246.908 212.279 244.786 212.279Z" fill="#00227B"/>
</g>
</g>
</g>
</g>
<path d="M242.98 283.757H136.123L126.109 216.462C125.897 215.037 126.317 213.595 127.262 212.504C128.206 211.413 129.578 210.788 131.024 210.788H248.079C249.526 210.788 250.897 211.413 251.841 212.504C252.786 213.595 253.206 215.037 252.994 216.462L242.98 283.757ZM138.706 280.774H240.397L250.033 216.024C250.118 215.45 249.955 214.891 249.574 214.451C249.193 214.011 248.663 213.769 248.079 213.769H131.024C130.44 213.769 129.91 214.012 129.529 214.451C129.148 214.891 128.985 215.45 129.07 216.024L138.706 280.774Z" fill="#00227B"/>
<g opacity="0.3">
<g opacity="0.3">
<g opacity="0.3">
<g opacity="0.3">
<path opacity="0.3" d="M145.715 266.839C141.759 258.155 138.878 243.329 139.528 234.604C140.177 225.88 145.257 228.549 146.832 239.725C151.022 269.469 147.48 270.717 145.715 266.839Z" fill="white"/>
</g>
</g>
</g>
</g>
<path d="M203.175 239.781C203.302 238.666 203.451 237.54 203.231 236.406C203.133 236.283 203.043 236.157 202.945 236.034C202.621 235.918 202.306 235.766 201.969 235.682C199.596 235.071 197.19 234.83 194.747 235.039C191.56 235.313 188.635 236.292 186.12 238.31C185.209 239.038 184.379 239.86 183.529 240.657C183.301 240.873 183.126 240.963 182.806 240.818C182.053 240.477 181.242 240.324 180.418 240.283C178.209 240.183 176.238 240.895 174.399 242.044C172.406 243.295 170.8 244.966 169.304 246.755C168.667 247.513 168.915 248.358 169.863 248.676C170.461 248.871 171.059 249.062 171.657 249.257C173.091 249.719 174.521 250.177 175.95 250.638C175.946 250.683 175.951 250.705 175.944 250.728C175.932 250.755 175.92 250.787 175.9 250.814C175.304 251.578 175.449 252.285 176.077 252.948C176.145 253.022 176.203 253.11 176.262 253.189C176.591 253.62 176.928 254.056 177.277 254.505C176.8 254.872 176.332 255.183 175.918 255.559C175.709 255.749 175.525 256.024 175.446 256.297C175.312 256.737 175.541 257.187 175.934 257.418C176.351 257.668 176.781 257.657 177.169 257.378C177.662 257.029 178.132 256.651 178.634 256.27C179.107 256.891 179.555 257.478 180.005 258.059C180.521 258.72 180.876 258.833 181.676 258.613C181.822 258.568 181.966 258.536 182.138 258.495C182.149 258.665 182.162 258.802 182.17 258.93C182.272 260.988 182.366 263.05 182.479 265.103C182.531 266.076 183.303 266.536 184.186 266.119C184.983 265.744 185.779 265.348 186.561 264.926C188.362 263.95 190.001 262.755 191.308 261.166C192.945 259.167 193.851 256.933 193.427 254.295C193.409 254.191 193.496 254.013 193.586 253.96C194.389 253.444 195.214 252.961 196.018 252.442C197.834 251.263 199.295 249.73 200.437 247.9C201.988 245.411 202.845 242.68 203.175 239.781ZM177.132 248.689C175.477 248.152 173.762 247.595 172 247.024C173.82 245.096 175.747 243.413 178.342 242.702C179.464 242.395 180.76 242.421 181.525 242.731C180.072 244.706 178.615 246.681 177.132 248.689ZM191.049 257.16C190.629 258.496 189.826 259.584 188.837 260.555C187.607 261.747 186.177 262.637 184.63 263.448C184.537 261.555 184.441 259.703 184.348 257.89C186.687 256.983 188.974 256.099 191.273 255.209C191.362 255.84 191.253 256.509 191.049 257.16ZM199.686 244.486C198.934 246.255 197.946 247.866 196.538 249.2C195.451 250.224 194.218 251.045 192.92 251.775C189.4 253.754 185.628 255.118 181.771 256.272C181.582 256.326 181.467 256.316 181.343 256.144C181.074 255.763 180.772 255.396 180.487 255.02C180.468 254.999 180.462 254.963 180.435 254.896C180.533 254.818 180.639 254.74 180.745 254.659C182.946 252.975 185.157 251.298 187.359 249.611C187.995 249.13 188.023 248.304 187.434 247.827C187.022 247.491 186.48 247.496 186.005 247.852C184.681 248.858 183.359 249.865 182.038 250.875C181.052 251.626 180.075 252.373 179.052 253.155C178.7 252.698 178.361 252.28 178.055 251.841C178.003 251.763 178.056 251.564 178.127 251.467C179.3 249.723 180.463 247.97 181.684 246.257C182.892 244.555 184.265 242.984 185.776 241.541C187.192 240.178 188.727 238.975 190.583 238.258C191.772 237.797 193 237.483 194.268 237.348C194.383 237.332 194.55 237.446 194.631 237.552C195.921 239.212 197.194 240.875 198.472 242.541C198.855 243.037 199.234 243.542 199.629 244.032C199.747 244.18 199.762 244.306 199.686 244.486ZM200.451 242.163C199.177 240.501 197.933 238.884 196.687 237.26C196.689 237.223 196.7 237.18 196.706 237.14C198.156 237.313 199.61 237.49 201.079 237.665C201.051 239.241 200.818 240.684 200.451 242.163Z" fill="#00227B"/>
<path d="M199.631 244.032C199.235 243.542 198.857 243.036 198.474 242.54C197.197 240.874 195.923 239.211 194.633 237.551C194.552 237.445 194.385 237.331 194.27 237.347C193.002 237.482 191.774 237.796 190.585 238.258C188.728 238.975 187.194 240.178 185.778 241.54C184.267 242.983 182.894 244.554 181.686 246.256C180.465 247.97 179.302 249.723 178.129 251.466C178.058 251.563 178.005 251.762 178.057 251.84C178.362 252.28 178.701 252.697 179.054 253.154C180.077 252.372 181.054 251.624 182.04 250.874C183.362 249.864 184.683 248.857 186.008 247.851C186.482 247.496 187.024 247.491 187.436 247.826C188.025 248.304 187.998 249.13 187.361 249.611C185.159 251.297 182.948 252.975 180.747 254.658C180.641 254.739 180.535 254.817 180.437 254.895C180.464 254.963 180.47 254.998 180.489 255.019C180.774 255.395 181.076 255.762 181.345 256.143C181.469 256.316 181.584 256.325 181.773 256.271C185.63 255.117 189.402 253.753 192.922 251.774C194.22 251.045 195.453 250.223 196.54 249.199C197.947 247.865 198.936 246.254 199.688 244.485C199.762 244.306 199.748 244.18 199.631 244.032ZM195.768 246.569C194.085 247.832 191.704 247.523 190.441 245.87C189.169 244.219 189.489 241.849 191.156 240.569C192.793 239.314 195.175 239.638 196.451 241.29C197.712 242.931 197.404 245.336 195.768 246.569Z" fill="white"/>
<path d="M200.45 242.162C199.176 240.503 197.932 238.884 196.687 237.26C196.691 237.222 196.699 237.182 196.705 237.14C198.156 237.314 199.61 237.491 201.081 237.666C201.053 239.239 200.817 240.684 200.45 242.162Z" fill="#DB2C2C"/>
<path d="M181.525 242.732C180.071 244.704 178.614 246.681 177.132 248.69C175.475 248.15 173.76 247.595 171.998 247.024C173.821 245.094 175.747 243.411 178.342 242.702C179.463 242.394 180.758 242.421 181.525 242.732Z" fill="#DB2C2C"/>
<path d="M188.835 260.555C187.606 261.748 186.177 262.639 184.629 263.448C184.535 261.557 184.44 259.705 184.347 257.89C186.686 256.984 188.973 256.101 191.275 255.208C191.363 255.841 191.252 256.508 191.05 257.161C190.63 258.498 189.827 259.585 188.835 260.555Z" fill="#DB2C2C"/>
<path d="M196.45 241.29C195.174 239.638 192.792 239.315 191.155 240.569C189.488 241.85 189.167 244.219 190.439 245.87C191.703 247.523 194.084 247.832 195.767 246.569C197.404 245.336 197.712 242.931 196.45 241.29ZM194.633 245.175C193.781 245.818 192.528 245.648 191.864 244.8C191.177 243.926 191.365 242.641 192.274 241.969C193.126 241.333 194.402 241.517 195.043 242.37C195.712 243.256 195.528 244.501 194.633 245.175Z" fill="#00227B"/>
<path d="M194.632 245.175C193.78 245.818 192.527 245.648 191.862 244.799C191.178 243.926 191.363 242.641 192.272 241.969C193.126 241.335 194.4 241.517 195.041 242.368C195.711 243.256 195.529 244.502 194.632 245.175Z" fill="#22A7F0"/>
<path d="M250.995 219.728C250.995 219.728 242.914 215.908 235.325 219.334C228.057 222.615 222.916 245.975 232.332 251.893C238.143 255.545 242.099 252.319 245.386 253.266C250.263 254.671 260.268 230.618 250.995 219.728Z" fill="white"/>
<g opacity="0.35">
<path d="M254.641 234.93C253.684 244.721 248.494 254.161 245.388 253.266C242.098 252.32 238.143 255.547 232.332 251.895C227.834 249.066 226.659 242.261 227.452 235.559C227.987 239.469 229.503 242.819 232.332 244.597C238.143 248.245 242.013 246.55 245.388 245.969C249.56 245.249 252.961 240.71 254.641 234.93Z" fill="#00227B"/>
</g>
<path d="M238.29 255.17C236.33 255.17 234.061 254.743 231.532 253.154C229.269 251.731 227.634 249.429 226.674 246.312C225.867 243.696 225.566 240.509 225.802 237.094C226.081 233.05 227.079 228.901 228.612 225.411C229.784 222.746 231.792 219.292 234.706 217.976C242.834 214.307 251.28 218.212 251.636 218.38L251.927 218.518L252.135 218.763C256.379 223.747 256.624 230.633 256.082 235.531C255.471 241.05 253.516 246.905 250.977 250.81C248.435 254.722 246.307 255.084 244.969 254.699C244.101 254.449 243.004 254.623 241.734 254.826C240.73 254.986 239.576 255.17 238.29 255.17ZM242.242 219.394C239.967 219.394 237.858 219.828 235.943 220.693C234.367 221.404 232.695 223.56 231.356 226.608C229.977 229.745 229.042 233.641 228.789 237.3C228.343 243.759 229.925 248.619 233.13 250.633C236.361 252.664 238.853 252.266 241.262 251.882C242.82 251.634 244.291 251.399 245.802 251.835C245.976 251.865 247.221 251.386 248.978 248.355C253.075 241.287 255.673 227.939 250.068 220.951C249.433 220.688 247.798 220.069 245.659 219.699C244.483 219.496 243.343 219.394 242.242 219.394Z" fill="#00227B"/>
<path d="M273.594 134.695C270.712 131.727 268.745 127.832 268.22 123.416C266.946 112.697 274.637 102.978 285.399 101.708C296.162 100.439 305.92 108.099 307.194 118.819C308.469 129.539 300.778 139.258 290.015 140.527C287.022 140.88 284.107 140.54 281.43 139.638L273.013 143.593L273.594 134.695Z" fill="#FF0068"/>
<g opacity="0.5">
<path opacity="0.5" d="M285.843 105.441C275.79 106.627 268.418 115.186 268.529 125.046C268.375 124.374 268.253 123.689 268.169 122.99C266.894 112.271 274.585 102.552 285.348 101.282C296.111 100.013 305.869 107.673 307.143 118.393C307.227 119.096 307.27 119.793 307.278 120.486C305.078 110.868 295.9 104.255 285.843 105.441Z" fill="white"/>
</g>
<path d="M273.012 145.027C272.728 145.027 272.445 144.943 272.202 144.778C271.781 144.492 271.542 144.006 271.575 143.499L272.117 135.222C269.149 131.977 267.311 127.968 266.79 123.584C266.128 118.019 267.682 112.531 271.164 108.13C274.647 103.729 279.642 100.942 285.23 100.283C290.817 99.6244 296.327 101.172 300.745 104.64C305.163 108.109 307.962 113.084 308.623 118.649C309.285 124.214 307.731 129.702 304.248 134.103C300.766 138.504 295.771 141.291 290.183 141.95C287.242 142.296 284.333 142.036 281.528 141.175L273.626 144.888C273.431 144.982 273.221 145.027 273.012 145.027ZM287.72 103.006C287.009 103.006 286.292 103.047 285.568 103.133C280.745 103.701 276.433 106.107 273.426 109.906C270.42 113.705 269.078 118.444 269.65 123.247C270.121 127.215 271.843 130.829 274.629 133.697C274.911 133.988 275.058 134.384 275.031 134.788L274.607 141.258L280.814 138.341C281.151 138.183 281.537 138.161 281.89 138.28C284.459 139.146 287.135 139.423 289.845 139.104C299.802 137.929 306.943 128.905 305.764 118.989C304.671 109.791 296.799 103.006 287.72 103.006Z" fill="#00227B"/>
<g opacity="0.3">
<path opacity="0.3" d="M273.446 134.536C279.684 137.785 287.345 138.11 294.12 134.731C301.634 130.984 306.141 123.642 306.605 115.846C306.874 116.806 307.073 117.798 307.194 118.819C308.468 129.539 300.777 139.258 290.014 140.527C287.021 140.88 284.106 140.54 281.429 139.638L273.012 143.593L273.595 134.695C273.544 134.642 273.496 134.588 273.446 134.536Z" fill="#00227B"/>
</g>
<path d="M281.5 115.629C283.199 113.937 285.952 114.241 287.651 115.932L287.915 116.195L288.179 115.932C289.877 114.241 292.631 113.937 294.329 115.629C296.027 117.32 296.027 120.063 294.329 121.754L294.065 122.017L288.726 127.335C288.278 127.781 287.553 127.781 287.104 127.335L281.765 122.017L281.501 121.754C279.802 120.062 279.802 117.32 281.5 115.629Z" fill="white"/>
</svg>
